<mxfile host="app.diagrams.net" modified="2022-10-19T01:59:26.169Z" agent="5.0 (Windows)" etag="ipEhOAJEIeJ6khvYbYq0" version="20.4.0" type="github">
  <diagram id="C5RBs43oDa-KdzZeNtuy" name="Page-1">
    <mxGraphModel dx="1422" dy="780" grid="1" gridSize="10" guides="1" tooltips="1" connect="1" arrows="1" fold="1" page="1" pageScale="1" pageWidth="827" pageHeight="1169" math="0" shadow="0">
      <root>
        <mxCell id="WIyWlLk6GJQsqaUBKTNV-0" />
        <mxCell id="WIyWlLk6GJQsqaUBKTNV-1" parent="WIyWlLk6GJQsqaUBKTNV-0" />
        <mxCell id="N6EPa3upQl3NKMjwTGG_-5" style="edgeStyle=orthogonalEdgeStyle;rounded=0;orthogonalLoop=1;jettySize=auto;html=1;exitX=1;exitY=0.5;exitDx=0;exitDy=0;entryX=0;entryY=0.5;entryDx=0;entryDy=0;" edge="1" parent="WIyWlLk6GJQsqaUBKTNV-1" source="N6EPa3upQl3NKMjwTGG_-6" target="N6EPa3upQl3NKMjwTGG_-8">
          <mxGeometry relative="1" as="geometry" />
        </mxCell>
        <mxCell id="N6EPa3upQl3NKMjwTGG_-6" value="开始" style="rounded=1;whiteSpace=wrap;html=1;fontSize=12;glass=0;strokeWidth=1;shadow=0;" vertex="1" parent="WIyWlLk6GJQsqaUBKTNV-1">
          <mxGeometry x="60" y="68.75" width="90" height="40" as="geometry" />
        </mxCell>
        <mxCell id="N6EPa3upQl3NKMjwTGG_-7" value="" style="edgeStyle=orthogonalEdgeStyle;rounded=0;orthogonalLoop=1;jettySize=auto;html=1;" edge="1" parent="WIyWlLk6GJQsqaUBKTNV-1" source="N6EPa3upQl3NKMjwTGG_-8" target="N6EPa3upQl3NKMjwTGG_-9">
          <mxGeometry relative="1" as="geometry" />
        </mxCell>
        <mxCell id="N6EPa3upQl3NKMjwTGG_-8" value="查询approvalLog" style="rounded=1;whiteSpace=wrap;html=1;fontSize=12;glass=0;strokeWidth=1;shadow=0;" vertex="1" parent="WIyWlLk6GJQsqaUBKTNV-1">
          <mxGeometry x="200" y="68.75" width="120" height="40" as="geometry" />
        </mxCell>
        <mxCell id="N6EPa3upQl3NKMjwTGG_-11" style="edgeStyle=orthogonalEdgeStyle;rounded=0;orthogonalLoop=1;jettySize=auto;html=1;exitX=1;exitY=0.5;exitDx=0;exitDy=0;entryX=0;entryY=0.5;entryDx=0;entryDy=0;" edge="1" parent="WIyWlLk6GJQsqaUBKTNV-1" source="N6EPa3upQl3NKMjwTGG_-9" target="N6EPa3upQl3NKMjwTGG_-10">
          <mxGeometry relative="1" as="geometry" />
        </mxCell>
        <mxCell id="N6EPa3upQl3NKMjwTGG_-9" value="查询specAppl记录" style="rounded=1;whiteSpace=wrap;html=1;fontSize=12;glass=0;strokeWidth=1;shadow=0;" vertex="1" parent="WIyWlLk6GJQsqaUBKTNV-1">
          <mxGeometry x="360" y="68.75" width="120" height="40" as="geometry" />
        </mxCell>
        <mxCell id="N6EPa3upQl3NKMjwTGG_-12" style="edgeStyle=orthogonalEdgeStyle;rounded=0;orthogonalLoop=1;jettySize=auto;html=1;exitX=0.5;exitY=0;exitDx=0;exitDy=0;entryX=0.5;entryY=0;entryDx=0;entryDy=0;" edge="1" parent="WIyWlLk6GJQsqaUBKTNV-1" source="N6EPa3upQl3NKMjwTGG_-10" target="N6EPa3upQl3NKMjwTGG_-6">
          <mxGeometry relative="1" as="geometry" />
        </mxCell>
        <mxCell id="N6EPa3upQl3NKMjwTGG_-13" value="yes" style="edgeLabel;html=1;align=center;verticalAlign=middle;resizable=0;points=[];" vertex="1" connectable="0" parent="N6EPa3upQl3NKMjwTGG_-12">
          <mxGeometry x="-0.6654" y="1" relative="1" as="geometry">
            <mxPoint as="offset" />
          </mxGeometry>
        </mxCell>
        <mxCell id="N6EPa3upQl3NKMjwTGG_-15" style="edgeStyle=orthogonalEdgeStyle;rounded=0;orthogonalLoop=1;jettySize=auto;html=1;exitX=0.5;exitY=1;exitDx=0;exitDy=0;entryX=0.5;entryY=0;entryDx=0;entryDy=0;" edge="1" parent="WIyWlLk6GJQsqaUBKTNV-1" source="N6EPa3upQl3NKMjwTGG_-10" target="N6EPa3upQl3NKMjwTGG_-14">
          <mxGeometry relative="1" as="geometry" />
        </mxCell>
        <mxCell id="N6EPa3upQl3NKMjwTGG_-10" value="&lt;div&gt;specStatus!=submitted&lt;/div&gt;&lt;div&gt;&amp;amp;&amp;amp;&lt;/div&gt;&lt;div&gt;specStatus!=in-use&lt;/div&gt;" style="rhombus;whiteSpace=wrap;html=1;" vertex="1" parent="WIyWlLk6GJQsqaUBKTNV-1">
          <mxGeometry x="520" y="40" width="180" height="97.5" as="geometry" />
        </mxCell>
        <mxCell id="N6EPa3upQl3NKMjwTGG_-22" style="edgeStyle=orthogonalEdgeStyle;rounded=0;orthogonalLoop=1;jettySize=auto;html=1;exitX=0;exitY=0.5;exitDx=0;exitDy=0;entryX=1;entryY=0.5;entryDx=0;entryDy=0;" edge="1" parent="WIyWlLk6GJQsqaUBKTNV-1" source="N6EPa3upQl3NKMjwTGG_-14" target="N6EPa3upQl3NKMjwTGG_-21">
          <mxGeometry relative="1" as="geometry" />
        </mxCell>
        <mxCell id="N6EPa3upQl3NKMjwTGG_-14" value="查询itemExcelFile" style="rounded=1;whiteSpace=wrap;html=1;fontSize=12;glass=0;strokeWidth=1;shadow=0;" vertex="1" parent="WIyWlLk6GJQsqaUBKTNV-1">
          <mxGeometry x="550" y="190" width="120" height="60" as="geometry" />
        </mxCell>
        <mxCell id="N6EPa3upQl3NKMjwTGG_-24" style="edgeStyle=orthogonalEdgeStyle;rounded=0;orthogonalLoop=1;jettySize=auto;html=1;exitX=0;exitY=0.5;exitDx=0;exitDy=0;entryX=0.5;entryY=1;entryDx=0;entryDy=0;" edge="1" parent="WIyWlLk6GJQsqaUBKTNV-1" source="N6EPa3upQl3NKMjwTGG_-20" target="N6EPa3upQl3NKMjwTGG_-6">
          <mxGeometry relative="1" as="geometry" />
        </mxCell>
        <mxCell id="N6EPa3upQl3NKMjwTGG_-25" value="false" style="edgeLabel;html=1;align=center;verticalAlign=middle;resizable=0;points=[];" vertex="1" connectable="0" parent="N6EPa3upQl3NKMjwTGG_-24">
          <mxGeometry x="-0.6698" relative="1" as="geometry">
            <mxPoint as="offset" />
          </mxGeometry>
        </mxCell>
        <mxCell id="N6EPa3upQl3NKMjwTGG_-27" value="" style="edgeStyle=orthogonalEdgeStyle;rounded=0;orthogonalLoop=1;jettySize=auto;html=1;entryX=0.5;entryY=0;entryDx=0;entryDy=0;" edge="1" parent="WIyWlLk6GJQsqaUBKTNV-1" source="N6EPa3upQl3NKMjwTGG_-20" target="N6EPa3upQl3NKMjwTGG_-29">
          <mxGeometry relative="1" as="geometry" />
        </mxCell>
        <mxCell id="N6EPa3upQl3NKMjwTGG_-28" value="true" style="edgeLabel;html=1;align=center;verticalAlign=middle;resizable=0;points=[];" vertex="1" connectable="0" parent="N6EPa3upQl3NKMjwTGG_-27">
          <mxGeometry x="-0.2667" y="-1" relative="1" as="geometry">
            <mxPoint as="offset" />
          </mxGeometry>
        </mxCell>
        <mxCell id="N6EPa3upQl3NKMjwTGG_-20" value="isSussess" style="rhombus;whiteSpace=wrap;html=1;" vertex="1" parent="WIyWlLk6GJQsqaUBKTNV-1">
          <mxGeometry x="230" y="180" width="80" height="80" as="geometry" />
        </mxCell>
        <mxCell id="N6EPa3upQl3NKMjwTGG_-23" style="edgeStyle=orthogonalEdgeStyle;rounded=0;orthogonalLoop=1;jettySize=auto;html=1;exitX=0;exitY=0.5;exitDx=0;exitDy=0;" edge="1" parent="WIyWlLk6GJQsqaUBKTNV-1" source="N6EPa3upQl3NKMjwTGG_-21" target="N6EPa3upQl3NKMjwTGG_-20">
          <mxGeometry relative="1" as="geometry" />
        </mxCell>
        <mxCell id="N6EPa3upQl3NKMjwTGG_-21" value="&lt;div&gt;执行specAppl-append&lt;/div&gt;&lt;div&gt;-check流程&lt;br&gt;&lt;/div&gt;" style="rounded=1;whiteSpace=wrap;html=1;" vertex="1" parent="WIyWlLk6GJQsqaUBKTNV-1">
          <mxGeometry x="370" y="190" width="120" height="60" as="geometry" />
        </mxCell>
        <mxCell id="N6EPa3upQl3NKMjwTGG_-36" value="" style="edgeStyle=orthogonalEdgeStyle;rounded=0;orthogonalLoop=1;jettySize=auto;html=1;" edge="1" parent="WIyWlLk6GJQsqaUBKTNV-1" source="N6EPa3upQl3NKMjwTGG_-26" target="N6EPa3upQl3NKMjwTGG_-35">
          <mxGeometry relative="1" as="geometry" />
        </mxCell>
        <mxCell id="N6EPa3upQl3NKMjwTGG_-26" value="&lt;div&gt;从specAppl-append&lt;/div&gt;&lt;div&gt;-check流程获取&lt;/div&gt;&lt;div&gt;itemExcelFile 转换的specAppItemList&lt;br&gt;&lt;/div&gt;" style="rounded=1;whiteSpace=wrap;html=1;" vertex="1" parent="WIyWlLk6GJQsqaUBKTNV-1">
          <mxGeometry x="560" y="310" width="120" height="60" as="geometry" />
        </mxCell>
        <mxCell id="N6EPa3upQl3NKMjwTGG_-33" value="" style="edgeStyle=orthogonalEdgeStyle;rounded=0;orthogonalLoop=1;jettySize=auto;html=1;" edge="1" parent="WIyWlLk6GJQsqaUBKTNV-1" source="N6EPa3upQl3NKMjwTGG_-29" target="N6EPa3upQl3NKMjwTGG_-32">
          <mxGeometry relative="1" as="geometry" />
        </mxCell>
        <mxCell id="N6EPa3upQl3NKMjwTGG_-29" value="修改approvalLog状态" style="whiteSpace=wrap;html=1;rounded=1;" vertex="1" parent="WIyWlLk6GJQsqaUBKTNV-1">
          <mxGeometry x="210" y="310" width="120" height="60" as="geometry" />
        </mxCell>
        <mxCell id="N6EPa3upQl3NKMjwTGG_-34" style="edgeStyle=orthogonalEdgeStyle;rounded=0;orthogonalLoop=1;jettySize=auto;html=1;exitX=1;exitY=0.5;exitDx=0;exitDy=0;entryX=0;entryY=0.5;entryDx=0;entryDy=0;" edge="1" parent="WIyWlLk6GJQsqaUBKTNV-1" source="N6EPa3upQl3NKMjwTGG_-32" target="N6EPa3upQl3NKMjwTGG_-26">
          <mxGeometry relative="1" as="geometry" />
        </mxCell>
        <mxCell id="N6EPa3upQl3NKMjwTGG_-32" value="从specAppl记录获取specId" style="whiteSpace=wrap;html=1;rounded=1;" vertex="1" parent="WIyWlLk6GJQsqaUBKTNV-1">
          <mxGeometry x="390" y="310" width="120" height="60" as="geometry" />
        </mxCell>
        <mxCell id="N6EPa3upQl3NKMjwTGG_-38" value="" style="edgeStyle=orthogonalEdgeStyle;rounded=0;orthogonalLoop=1;jettySize=auto;html=1;" edge="1" parent="WIyWlLk6GJQsqaUBKTNV-1" source="N6EPa3upQl3NKMjwTGG_-35" target="N6EPa3upQl3NKMjwTGG_-37">
          <mxGeometry relative="1" as="geometry" />
        </mxCell>
        <mxCell id="N6EPa3upQl3NKMjwTGG_-35" value="&lt;div&gt;遍历循环&lt;/div&gt;&lt;div&gt;specAppItemList&lt;/div&gt;" style="rounded=1;whiteSpace=wrap;html=1;" vertex="1" parent="WIyWlLk6GJQsqaUBKTNV-1">
          <mxGeometry x="560" y="420" width="120" height="60" as="geometry" />
        </mxCell>
        <mxCell id="N6EPa3upQl3NKMjwTGG_-40" style="edgeStyle=orthogonalEdgeStyle;rounded=0;orthogonalLoop=1;jettySize=auto;html=1;exitX=0;exitY=0.5;exitDx=0;exitDy=0;" edge="1" parent="WIyWlLk6GJQsqaUBKTNV-1" source="N6EPa3upQl3NKMjwTGG_-37" target="N6EPa3upQl3NKMjwTGG_-39">
          <mxGeometry relative="1" as="geometry" />
        </mxCell>
        <mxCell id="N6EPa3upQl3NKMjwTGG_-37" value="保存新添加的item" style="rounded=1;whiteSpace=wrap;html=1;" vertex="1" parent="WIyWlLk6GJQsqaUBKTNV-1">
          <mxGeometry x="390" y="420" width="120" height="60" as="geometry" />
        </mxCell>
        <mxCell id="N6EPa3upQl3NKMjwTGG_-41" style="edgeStyle=orthogonalEdgeStyle;rounded=0;orthogonalLoop=1;jettySize=auto;html=1;exitX=0.5;exitY=1;exitDx=0;exitDy=0;entryX=0.5;entryY=1;entryDx=0;entryDy=0;" edge="1" parent="WIyWlLk6GJQsqaUBKTNV-1" source="N6EPa3upQl3NKMjwTGG_-39" target="N6EPa3upQl3NKMjwTGG_-35">
          <mxGeometry relative="1" as="geometry" />
        </mxCell>
        <mxCell id="N6EPa3upQl3NKMjwTGG_-42" value="no" style="edgeLabel;html=1;align=center;verticalAlign=middle;resizable=0;points=[];" vertex="1" connectable="0" parent="N6EPa3upQl3NKMjwTGG_-41">
          <mxGeometry x="-0.69" y="-2" relative="1" as="geometry">
            <mxPoint as="offset" />
          </mxGeometry>
        </mxCell>
        <mxCell id="N6EPa3upQl3NKMjwTGG_-44" value="" style="edgeStyle=orthogonalEdgeStyle;rounded=0;orthogonalLoop=1;jettySize=auto;html=1;" edge="1" parent="WIyWlLk6GJQsqaUBKTNV-1" source="N6EPa3upQl3NKMjwTGG_-39" target="N6EPa3upQl3NKMjwTGG_-43">
          <mxGeometry relative="1" as="geometry" />
        </mxCell>
        <mxCell id="N6EPa3upQl3NKMjwTGG_-39" value="&lt;div&gt;检查是否&lt;/div&gt;&lt;div&gt;最后一条记录&lt;br&gt;&lt;/div&gt;" style="rhombus;whiteSpace=wrap;html=1;" vertex="1" parent="WIyWlLk6GJQsqaUBKTNV-1">
          <mxGeometry x="230" y="410" width="80" height="80" as="geometry" />
        </mxCell>
        <mxCell id="N6EPa3upQl3NKMjwTGG_-43" value="end" style="rounded=1;whiteSpace=wrap;html=1;" vertex="1" parent="WIyWlLk6GJQsqaUBKTNV-1">
          <mxGeometry x="50" y="420" width="120" height="60" as="geometry" />
        </mxCell>
      </root>
    </mxGraphModel>
  </diagram>
</mxfile>
